<svg width="308" height="95" viewBox="0 0 308 95" fill="none" xmlns="http://www.w3.org/2000/svg">
<path d="M252.056 91.5652C253.252 93.246 255.748 93.246 256.944 91.5652L274.077 67.4894C275.49 65.5033 274.07 62.75 271.633 62.75H237.367C234.93 62.75 233.51 65.5033 234.923 67.4894L252.056 91.5652Z" fill="#FCF7F8"/>
<path d="M0 10C0 4.47715 4.47715 0 10 0H298C303.523 0 308 4.47715 308 10V64C308 69.5229 303.523 74 298 74H10C4.47716 74 0 69.5229 0 64V10Z" fill="#FCF7F8"/>
<path d="M63.1953 42.5586C61.0156 43.7305 58.7188 44.3281 56.3047 44.3516C52.9531 44.3516 50.2461 43.2617 48.1836 41.082C46.2383 39.0195 45.2656 36.4648 45.2656 33.418C45.2656 30.8867 45.9922 28.6367 47.4453 26.668C49.4844 23.9258 52.4375 22.5547 56.3047 22.5547C58.8594 22.5547 61.1094 23.1523 63.0547 24.3477C63.0547 23.9023 63.0781 23.5625 63.125 23.3281C63.2422 22.9297 63.5938 22.7305 64.1797 22.7305L64.2852 29.5156H63.1602C62.9492 28.7656 62.7148 28.0859 62.457 27.4766C61.2852 24.875 59.375 23.5742 56.7266 23.5742C55.9062 23.5742 55.1445 23.7031 54.4414 23.9609C51.582 25.0859 50.1523 28.2148 50.1523 33.3477C50.1758 39.957 52.2969 43.2852 56.5156 43.332C56.9141 43.332 57.3125 43.3086 57.7109 43.2617C60.4766 42.8633 62.3516 40.8945 63.3359 37.3555H64.3906V44.1758C64.1328 44.1758 63.9219 44.1523 63.7578 44.1055C63.3594 43.9883 63.1719 43.4727 63.1953 42.5586ZM73.4961 43.0859C73.6367 43.0859 73.7773 43.0977 73.918 43.1211C74.2227 43.1914 74.375 43.4844 74.375 44H66.2188V43.0859C66.6172 43.0859 66.957 43.0625 67.2383 43.0156C68.0586 42.8516 68.4688 42.2422 68.4688 41.1875V22.0625H66.2188V21.1484H72.3359V31.8711C72.5234 31.4258 72.7695 30.9922 73.0742 30.5703C74.1992 29.1641 75.7109 28.4609 77.6094 28.4609C78.2891 28.4609 78.9219 28.5781 79.5078 28.8125C81.4062 29.6094 82.3555 31.4023 82.3555 34.1914V43.0859H83.6914C83.832 43.0859 83.9727 43.0977 84.1133 43.1211C84.418 43.1914 84.5703 43.4844 84.5703 44H76.7656V43.0859C77.3047 43.0859 77.7031 43.0273 77.9609 42.9102C78.3125 42.7227 78.4883 42.1484 78.4883 41.1875V33.7695C78.4883 33.2773 78.4414 32.832 78.3477 32.4336C77.9727 30.9805 77.1055 30.2539 75.7461 30.2539C75.2773 30.2539 74.8086 30.3828 74.3398 30.6406C73.0039 31.4141 72.3359 32.8438 72.3359 34.9297V43.0859H73.4961ZM94.0977 29.375C93.8398 29.375 93.5703 29.4102 93.2891 29.4805C91.625 29.9961 90.7461 31.918 90.6523 35.2461L93.3594 35.3516C94.3438 35.375 95.0938 35.3164 95.6094 35.1758C96.4062 34.8945 96.8047 34.2031 96.8047 33.1016C96.8047 32.7031 96.7695 32.3164 96.6992 31.9414C96.418 30.2305 95.5508 29.375 94.0977 29.375ZM100.531 40.4492C100.391 40.8008 100.215 41.1523 100.004 41.5039C98.8086 43.4023 96.875 44.3516 94.2031 44.3516C92.6328 44.3516 91.2148 44 89.9492 43.2969C87.582 41.9141 86.3984 39.6172 86.3984 36.4062C86.3984 34.4375 86.9023 32.7617 87.9102 31.3789C89.3398 29.4336 91.4023 28.4609 94.0977 28.4609C95.5742 28.4609 96.8984 28.7422 98.0703 29.3047C99.9453 30.2422 100.883 31.6367 100.883 33.4883C100.883 34.0039 100.766 34.4492 100.531 34.8242C99.8281 35.9023 97.7188 36.4062 94.2031 36.3359L90.6523 36.2656C90.6523 36.2891 90.6523 36.3125 90.6523 36.3359C90.7695 41 92.1992 43.332 94.9414 43.332C95.457 43.332 95.9609 43.25 96.4531 43.0859C97.9297 42.6172 99.0078 41.6445 99.6875 40.168L100.531 40.4492ZM102.992 36.5117C102.992 34.4023 103.578 32.6328 104.75 31.2031C106.227 29.375 108.277 28.4609 110.902 28.4609C112.566 28.4609 113.996 28.8125 115.191 29.5156C116.48 30.2891 117.125 31.2031 117.125 32.2578C117.125 32.4219 117.102 32.5977 117.055 32.7852C116.797 33.6055 116.141 34.0156 115.086 34.0156C114.617 33.9922 114.23 33.8867 113.926 33.6992C113.527 33.418 113.246 32.7617 113.082 31.7305C113.035 31.3086 112.988 30.9922 112.941 30.7812C112.684 29.8203 112.004 29.3398 110.902 29.3398C110.645 29.3398 110.375 29.3633 110.094 29.4102C108.195 29.8555 107.246 32.2227 107.246 36.5117C107.27 41.0117 108.664 43.2852 111.43 43.332C111.922 43.332 112.391 43.2734 112.836 43.1562C114.547 42.7578 115.766 41.7852 116.492 40.2383L117.406 40.4844C117.195 41.0469 116.891 41.5625 116.492 42.0312C115.203 43.5781 113.34 44.3516 110.902 44.3516C109.285 44.3516 107.855 44.0117 106.613 43.332C104.199 41.9961 102.992 39.7227 102.992 36.5117ZM126.582 43.0859C126.699 43.0859 126.805 43.0977 126.898 43.1211C127.25 43.168 127.426 43.4609 127.426 44H118.285V43.0859C118.707 43.0859 119.07 43.0625 119.375 43.0156C120.43 42.8516 120.957 42.2422 120.957 41.1875V22.0625H118.285V21.1484H124.824V36.3359L131.715 29.832H129.113V28.9531H135.09C135.09 29.0703 135.078 29.1875 135.055 29.3047C135.008 29.6562 134.715 29.832 134.176 29.832C133.941 29.832 133.73 29.8555 133.543 29.9023C133.121 29.9961 132.512 30.4297 131.715 31.2031L128.902 33.875L134.527 43.0859H135.301C135.441 43.0859 135.57 43.0977 135.688 43.1211C135.992 43.168 136.145 43.4609 136.145 44L130.695 44.0352L126.195 36.4414L124.824 37.7422V43.0859H126.582ZM151.191 43.0859C151.309 43.0859 151.414 43.0977 151.508 43.1211C151.859 43.168 152.035 43.4609 152.035 44H143.598V43.0859C144.066 43.0859 144.441 43.0508 144.723 42.9805C145.496 42.793 145.883 42.1953 145.883 41.1875V29.832H143.598V28.9531H149.75V43.0859H151.191ZM150.102 24.1719C150.102 24.5703 150.008 24.9453 149.82 25.2969C149.375 26.1172 148.672 26.5273 147.711 26.5273C147.336 26.5273 146.973 26.4453 146.621 26.2812C145.754 25.8594 145.32 25.1562 145.32 24.1719C145.32 23.7969 145.414 23.4219 145.602 23.0469C146.047 22.1797 146.75 21.7461 147.711 21.7461C148.086 21.7461 148.449 21.8398 148.801 22.0273C149.668 22.4961 150.102 23.2109 150.102 24.1719ZM160.895 43.0859C161.035 43.0859 161.176 43.0977 161.316 43.1211C161.621 43.1914 161.773 43.4844 161.773 44H153.688V43.0859C154.109 43.0859 154.473 43.0508 154.777 42.9805C155.551 42.8164 155.938 42.2188 155.938 41.1875V29.832H153.688V28.9531H159.594L159.77 31.8711C160.004 31.3789 160.309 30.9102 160.684 30.4648C161.855 29.1289 163.285 28.4609 164.973 28.4609C165.676 28.4609 166.332 28.5898 166.941 28.8477C168.863 29.6445 169.824 31.4258 169.824 34.1914V43.0859H171.195C171.336 43.0859 171.477 43.0977 171.617 43.1211C171.922 43.1914 172.074 43.4844 172.074 44H164.023V43.0859C164.516 43.0859 164.891 43.0391 165.148 42.9453C165.688 42.7578 165.957 42.1719 165.957 41.1875V33.6641C165.957 33.1484 165.898 32.6797 165.781 32.2578C165.43 30.875 164.598 30.1836 163.285 30.1836C162.84 30.1836 162.395 30.3008 161.949 30.5352C160.707 31.2383 160.004 32.5273 159.84 34.4023L159.805 43.0859H160.895ZM187.684 43.0859C187.824 43.0859 187.965 43.0977 188.105 43.1211C188.41 43.1914 188.562 43.4844 188.562 44H180.406V43.0859C180.805 43.0859 181.145 43.0625 181.426 43.0156C182.246 42.8516 182.656 42.2422 182.656 41.1875V22.0625H180.406V21.1484H186.523V31.8711C186.711 31.4258 186.957 30.9922 187.262 30.5703C188.387 29.1641 189.898 28.4609 191.797 28.4609C192.477 28.4609 193.109 28.5781 193.695 28.8125C195.594 29.6094 196.543 31.4023 196.543 34.1914V43.0859H197.879C198.02 43.0859 198.16 43.0977 198.301 43.1211C198.605 43.1914 198.758 43.4844 198.758 44H190.953V43.0859C191.492 43.0859 191.891 43.0273 192.148 42.9102C192.5 42.7227 192.676 42.1484 192.676 41.1875V33.7695C192.676 33.2773 192.629 32.832 192.535 32.4336C192.16 30.9805 191.293 30.2539 189.934 30.2539C189.465 30.2539 188.996 30.3828 188.527 30.6406C187.191 31.4141 186.523 32.8438 186.523 34.9297V43.0859H187.684ZM208.285 29.375C208.027 29.375 207.758 29.4102 207.477 29.4805C205.812 29.9961 204.934 31.918 204.84 35.2461L207.547 35.3516C208.531 35.375 209.281 35.3164 209.797 35.1758C210.594 34.8945 210.992 34.2031 210.992 33.1016C210.992 32.7031 210.957 32.3164 210.887 31.9414C210.605 30.2305 209.738 29.375 208.285 29.375ZM214.719 40.4492C214.578 40.8008 214.402 41.1523 214.191 41.5039C212.996 43.4023 211.062 44.3516 208.391 44.3516C206.82 44.3516 205.402 44 204.137 43.2969C201.77 41.9141 200.586 39.6172 200.586 36.4062C200.586 34.4375 201.09 32.7617 202.098 31.3789C203.527 29.4336 205.59 28.4609 208.285 28.4609C209.762 28.4609 211.086 28.7422 212.258 29.3047C214.133 30.2422 215.07 31.6367 215.07 33.4883C215.07 34.0039 214.953 34.4492 214.719 34.8242C214.016 35.9023 211.906 36.4062 208.391 36.3359L204.84 36.2656C204.84 36.2891 204.84 36.3125 204.84 36.3359C204.957 41 206.387 43.332 209.129 43.332C209.645 43.332 210.148 43.25 210.641 43.0859C212.117 42.6172 213.195 41.6445 213.875 40.168L214.719 40.4492ZM225.547 43.0859C225.664 43.0859 225.77 43.0977 225.863 43.1211C226.215 43.168 226.391 43.4609 226.391 44H216.863V43.0859C217.332 43.0859 217.719 43.0508 218.023 42.9805C218.727 42.793 219.078 42.1953 219.078 41.1875V29.832H216.863V28.9531H222.664L222.875 32.2578C223.156 31.5781 223.543 30.9688 224.035 30.4297C225.16 29.2578 226.438 28.6719 227.867 28.6719C228.148 28.6719 228.43 28.707 228.711 28.7773C229.812 29.0586 230.363 29.7617 230.363 30.8867C230.363 31.168 230.305 31.4375 230.188 31.6953C229.836 32.5156 229.238 32.9258 228.395 32.9258C228.16 32.9258 227.938 32.8906 227.727 32.8203C227.281 32.6797 226.859 32.2344 226.461 31.4844C226.156 30.9453 225.852 30.6758 225.547 30.6758C225.359 30.6758 225.137 30.7578 224.879 30.9219C223.777 31.6953 223.145 33.207 222.98 35.457V43.0859H225.547ZM239.398 29.375C239.141 29.375 238.871 29.4102 238.59 29.4805C236.926 29.9961 236.047 31.918 235.953 35.2461L238.66 35.3516C239.645 35.375 240.395 35.3164 240.91 35.1758C241.707 34.8945 242.105 34.2031 242.105 33.1016C242.105 32.7031 242.07 32.3164 242 31.9414C241.719 30.2305 240.852 29.375 239.398 29.375ZM245.832 40.4492C245.691 40.8008 245.516 41.1523 245.305 41.5039C244.109 43.4023 242.176 44.3516 239.504 44.3516C237.934 44.3516 236.516 44 235.25 43.2969C232.883 41.9141 231.699 39.6172 231.699 36.4062C231.699 34.4375 232.203 32.7617 233.211 31.3789C234.641 29.4336 236.703 28.4609 239.398 28.4609C240.875 28.4609 242.199 28.7422 243.371 29.3047C245.246 30.2422 246.184 31.6367 246.184 33.4883C246.184 34.0039 246.066 34.4492 245.832 34.8242C245.129 35.9023 243.02 36.4062 239.504 36.3359L235.953 36.2656C235.953 36.2891 235.953 36.3125 235.953 36.3359C236.07 41 237.5 43.332 240.242 43.332C240.758 43.332 241.262 43.25 241.754 43.0859C243.23 42.6172 244.309 41.6445 244.988 40.168L245.832 40.4492ZM258.91 37.5312H257.785C257.785 34.7891 257.445 32.0234 256.766 29.2344C256.25 27.1484 255.992 25.7422 255.992 25.0156C256.016 23.4219 256.812 22.6016 258.383 22.5547C259.883 22.5781 260.656 23.3867 260.703 24.9805C260.703 25.7539 260.504 26.9609 260.105 28.6016C259.309 31.7656 258.91 34.7422 258.91 37.5312ZM260.633 41.9258C260.633 42.3008 260.539 42.6523 260.352 42.9805C259.93 43.7773 259.262 44.1758 258.348 44.1758C258.02 44.1758 257.691 44.1055 257.363 43.9648C256.52 43.5664 256.098 42.8867 256.098 41.9258C256.098 41.5742 256.18 41.2344 256.344 40.9062C256.742 40.0625 257.41 39.6406 258.348 39.6406C258.699 39.6406 259.051 39.7344 259.402 39.9219C260.223 40.3438 260.633 41.0117 260.633 41.9258Z" fill="#6582A4"/>
</svg>
