<svg width="441" height="441" viewBox="0 0 441 441" fill="none" xmlns="http://www.w3.org/2000/svg">
<path d="M222.54 0C249.359 29.9735 273.738 40.9146 283.437 70.3486C275.974 74.4249 268.284 80.2547 260.022 88.5166C225.257 123.283 230.267 166.581 233.075 195.282C233.069 195.287 233.063 195.291 233.058 195.296L233.076 195.302C233.076 195.295 233.076 195.289 233.075 195.282C255.351 176.995 287.873 150.056 287.873 102.083C287.873 89.2673 286.29 79.0078 283.437 70.3486C311.982 54.7559 337.203 64.8192 378.404 62.5303C374.844 87.4499 386.512 124.45 368.642 158.974C360.412 156.519 350.755 155.168 338.917 155.168C292.342 155.168 265.592 185.823 247.338 207.994C247.331 207.993 247.325 207.992 247.318 207.991L247.324 208.01C247.329 208.004 247.333 207.999 247.338 207.994C273.961 211.006 321.186 216.948 352.418 180.911C359.515 173.814 364.771 166.451 368.642 158.974C399.604 168.21 410.354 193.081 441 220.501C421.263 235.304 403.664 268.656 368.092 281.064C364.277 273.946 359.185 266.938 352.418 260.171C321.201 224.152 274.008 230.069 247.377 233.082C247.364 233.066 247.351 233.049 247.338 233.033L247.313 233.089C247.335 233.086 247.356 233.084 247.377 233.082C264.354 254.373 293.117 289.106 338.917 285.835C349.877 285.835 359.508 284.059 368.092 281.064C386.75 315.885 374.808 353.382 378.404 378.553C335.885 376.191 310.386 386.982 280.688 369.157C283.911 360.306 285.837 350.333 285.837 338.917C289.116 293.008 254.209 264.216 232.933 247.255C232.935 247.234 232.936 247.213 232.938 247.191L232.892 247.222C232.905 247.233 232.919 247.244 232.933 247.255C230.11 275.95 225.839 318.383 260.022 352.566C267.274 359.818 274.085 365.194 280.688 369.157C267.991 404.018 235.158 421.461 220.504 441C193.424 410.734 168.83 399.874 159.327 369.785C166.263 365.768 173.417 360.209 181.06 352.566C215.259 318.367 210.968 275.91 208.146 247.215C208.158 247.205 208.169 247.194 208.182 247.184L208.14 247.162C208.141 247.18 208.144 247.197 208.146 247.215C185.963 265.472 155.171 292.237 155.171 338.917C155.171 351.308 156.65 361.309 159.327 369.785C130.081 386.724 104.688 376.219 62.6787 378.553C66.2737 353.388 54.3382 315.902 72.9775 281.089C81.5442 284.069 91.1523 285.835 102.083 285.835C147.889 289.107 176.653 254.364 193.629 233.074C193.667 233.079 193.705 233.083 193.743 233.087L193.692 232.994C193.671 233.021 193.65 233.048 193.629 233.074C166.985 230.058 119.852 224.186 88.665 260.171C81.8903 266.946 76.7935 273.962 72.9775 281.089C37.3585 268.7 19.7499 235.313 0 220.501C31.4337 192.376 41.9353 166.933 74.7861 158.293C78.8437 165.554 84.5737 173.039 92.5986 181.064C125.299 213.765 165.547 211.273 194.098 208.524C194.103 208.531 194.108 208.538 194.113 208.544L194.126 208.521C194.117 208.522 194.107 208.524 194.098 208.524C175.834 186.315 149.031 155.168 102.083 155.168C91.3894 155.168 82.4756 156.271 74.7861 158.293C58.6868 129.482 68.9183 104.194 66.6123 62.6836C91.3457 66.2169 127.979 54.7482 162.281 72.0498C159.103 80.8492 157.206 90.756 157.206 102.083C153.834 149.291 190.839 178.4 211.882 195.157L211.919 195.141C214.865 168.799 221.668 120.453 184.994 88.6689C177.652 81.3264 170.025 75.9558 162.281 72.0498C174.923 37.0513 207.857 19.5777 222.54 0ZM220.501 200.085C209.225 200.085 200.085 209.225 200.085 220.501C200.085 231.777 209.225 240.918 220.501 240.918C231.777 240.918 240.918 231.777 240.918 220.501C240.918 209.225 231.777 200.085 220.501 200.085Z" fill="#9FBEE3"/>
</svg>
