<svg width="176" height="84" viewBox="0 0 176 84" fill="none" xmlns="http://www.w3.org/2000/svg">
<path d="M40.5721 80.6549C41.77 82.3053 44.23 82.3053 45.4279 80.6549L58.5961 62.5122C60.0355 60.529 58.6188 57.75 56.1682 57.75H29.8318C27.3812 57.75 25.9645 60.529 27.4039 62.5122L40.5721 80.6549Z" fill="#FCF7F8"/>
<path d="M0 10C0 4.47715 4.47715 0 10 0H166C171.523 0 176 4.47715 176 10V54C176 59.5228 171.523 64 166 64H10C4.47715 64 0 59.5228 0 54V10Z" fill="#FCF7F8"/>
<g clip-path="url(#clip0_2900_55)">
<path d="M144.853 28.1426H146V33.8576H144.853V28.1426Z" fill="#6582A4"/>
<path d="M143.713 33.8574H144.853V36.1449H143.713V33.8574Z" fill="#6582A4"/>
<path d="M143.713 25.855H144.853V28.1425H143.713V25.855Z" fill="#6582A4"/>
<path d="M142.572 36.145H143.712V38.425H142.572V36.145Z" fill="#6582A4"/>
<path d="M142.572 23.5674H143.712V25.8549H142.572V23.5674Z" fill="#6582A4"/>
<path d="M141.425 38.4248H142.572V39.5723H141.425V38.4248Z" fill="#6582A4"/>
<path d="M141.425 22.4277H142.572V23.5677H141.425V22.4277Z" fill="#6582A4"/>
<path d="M139.138 39.5723H141.425V40.7123H139.138V39.5723Z" fill="#6582A4"/>
<path d="M140.285 27.0025H139.137V25.855H135.71V27.0025H134.57V28.1425H133.422V27.0025H132.282V25.855H128.855V27.0025H127.715V28.1425H126.567V31.57H127.715V32.7175H128.855V33.8575H129.995V34.9975H131.142V36.145H132.282V37.285H133.422V38.425H134.57V37.285H135.71V36.145H136.857V34.9975H137.997V33.8575H139.137V32.7175H140.285V31.57H141.425V28.1425H140.285V27.0025ZM139.137 31.57H137.997V29.2825H135.71V28.1425H137.997V29.2825H139.137V31.57Z" fill="#6582A4"/>
<path d="M139.138 21.2876H141.425V22.4276H139.138V21.2876Z" fill="#6582A4"/>
<path d="M136.857 40.7124H139.137V41.8599H136.857V40.7124Z" fill="#6582A4"/>
<path d="M136.857 20.1401H139.137V21.2876H136.857V20.1401Z" fill="#6582A4"/>
<path d="M131.143 41.8599H136.858V42.9999H131.143V41.8599Z" fill="#6582A4"/>
<path d="M131.143 19H136.858V20.14H131.143V19Z" fill="#6582A4"/>
<path d="M128.855 40.7124H131.143V41.8599H128.855V40.7124Z" fill="#6582A4"/>
<path d="M128.855 20.1401H131.143V21.2876H128.855V20.1401Z" fill="#6582A4"/>
<path d="M126.567 39.5723H128.855V40.7123H126.567V39.5723Z" fill="#6582A4"/>
<path d="M126.567 21.2876H128.855V22.4276H126.567V21.2876Z" fill="#6582A4"/>
<path d="M125.428 38.4248H126.568V39.5723H125.428V38.4248Z" fill="#6582A4"/>
<path d="M125.428 22.4277H126.568V23.5677H125.428V22.4277Z" fill="#6582A4"/>
<path d="M124.28 36.145H125.428V38.425H124.28V36.145Z" fill="#6582A4"/>
<path d="M124.28 23.5674H125.428V25.8549H124.28V23.5674Z" fill="#6582A4"/>
<path d="M123.14 33.8574H124.28V36.1449H123.14V33.8574Z" fill="#6582A4"/>
<path d="M123.14 25.855H124.28V28.1425H123.14V25.855Z" fill="#6582A4"/>
<path d="M122 28.1426H123.14V33.8576H122V28.1426Z" fill="#6582A4"/>
</g>
<path d="M39.7188 39H28.6094V38.3672H30.4844V25.5703H28.6094V24.9375H35.3594V25.5703H33.3672V38.3672H36.0391C36.4766 38.3672 36.8594 38.2891 37.1875 38.1328C37.8125 37.8359 38.2891 37.1406 38.6172 36.0469L39.2031 34.0312H39.8125L39.7188 39ZM43.4922 33.9375C43.4922 35.0469 43.5703 35.9375 43.7266 36.6094C44.0391 37.9531 44.7812 38.625 45.9531 38.625C46.3438 38.625 46.6953 38.5469 47.0078 38.3906C47.9609 37.875 48.4375 36.3594 48.4375 33.8438C48.4375 32.7812 48.3594 31.9219 48.2031 31.2656C47.8906 29.9219 47.1406 29.25 45.9531 29.25C45.5 29.25 45.1016 29.3516 44.7578 29.5547C43.9141 30.1016 43.4922 31.5625 43.4922 33.9375ZM46.0469 28.6406C47.2969 28.6406 48.375 28.9766 49.2812 29.6484C50.5938 30.6172 51.25 32.0156 51.25 33.8438C51.25 35.2031 50.8438 36.375 50.0312 37.3594C49 38.6094 47.6172 39.2344 45.8828 39.2344C44.6172 39.2344 43.5156 38.8594 42.5781 38.1094C41.2969 37.0781 40.6562 35.6562 40.6562 33.8438C40.6562 32.5312 41.0469 31.4062 41.8281 30.4688C42.8594 29.25 44.2656 28.6406 46.0469 28.6406ZM57.2031 29.5547H55.6094L58.3281 36.9141L61.1406 29.5547H59.2891V28.9688H63.0156C63.0156 29.1719 63 29.3203 62.9688 29.4141C62.9375 29.5078 62.7891 29.5547 62.5234 29.5547C62.4297 29.5547 62.3359 29.5625 62.2422 29.5781C61.9922 29.625 61.7891 29.8594 61.6328 30.2812L58.2578 39.1172H57.5781C57.2656 39.1172 57.0234 39.0703 56.8516 38.9766C56.5859 38.8203 56.2891 38.3047 55.9609 37.4297L53.0312 29.5547H52.0703V28.9688H57.2031V29.5547ZM68.9688 29.25C68.7969 29.25 68.6172 29.2734 68.4297 29.3203C67.3203 29.6641 66.7344 30.9453 66.6719 33.1641L68.4766 33.2344C69.1328 33.25 69.6328 33.2109 69.9766 33.1172C70.5078 32.9297 70.7734 32.4688 70.7734 31.7344C70.7734 31.4688 70.75 31.2109 70.7031 30.9609C70.5156 29.8203 69.9375 29.25 68.9688 29.25ZM73.2578 36.6328C73.1641 36.8672 73.0469 37.1016 72.9062 37.3359C72.1094 38.6016 70.8203 39.2344 69.0391 39.2344C67.9922 39.2344 67.0469 39 66.2031 38.5312C64.625 37.6094 63.8359 36.0781 63.8359 33.9375C63.8359 32.625 64.1719 31.5078 64.8438 30.5859C65.7969 29.2891 67.1719 28.6406 68.9688 28.6406C69.9531 28.6406 70.8359 28.8281 71.6172 29.2031C72.8672 29.8281 73.4922 30.7578 73.4922 31.9922C73.4922 32.3359 73.4141 32.6328 73.2578 32.8828C72.7891 33.6016 71.3828 33.9375 69.0391 33.8906L66.6719 33.8438C66.6719 33.8594 66.6719 33.875 66.6719 33.8906C66.75 37 67.7031 38.5547 69.5312 38.5547C69.875 38.5547 70.2109 38.5 70.5391 38.3906C71.5234 38.0781 72.2422 37.4297 72.6953 36.4453L73.2578 36.6328ZM85.9375 39H79.3047V38.3672H81.1797V25.5703H79.3047V24.9375H85.9375V25.5703H84.0625V38.3672H85.3047C85.6328 38.3984 85.8438 38.6094 85.9375 39ZM86.9453 29.6484V29.0391H88.5625V26.8125L91.1406 26.3203V29.0391H94.4219V29.6484H91.1406V36.75C91.1406 36.9062 91.1484 37.0625 91.1641 37.2188C91.2734 38.1094 91.6562 38.5547 92.3125 38.5547C93.0781 38.5391 93.6328 37.8359 93.9766 36.4453L94.6094 36.5391C94.5156 37.0234 94.3906 37.4375 94.2344 37.7812C93.7969 38.7656 92.9609 39.2578 91.7266 39.2578C89.7578 39.1797 88.7031 38.0078 88.5625 35.7422V29.6484H86.9453Z" fill="#6582A4"/>
<defs>
<clipPath id="clip0_2900_55">
<rect width="24" height="24" fill="white" transform="translate(122 19)"/>
</clipPath>
</defs>
</svg>
