<svg width="194" height="97" viewBox="0 0 194 97" fill="none" xmlns="http://www.w3.org/2000/svg">
<path d="M170 67.1777C177.246 65.256 179.72 62.3705 182.178 55C183.578 62.1774 186.32 64.6437 194 66.8223C186.992 68.3585 184.215 70.8712 181.822 79C179.418 72.4261 177.037 69.6541 170 67.1777Z" fill="#FCF7F8"/>
<path d="M138 25.3555C153.093 21.3608 158.244 15.3525 163.355 1.68313e-05C166.281 14.9549 171.998 20.0964 188 24.6448C173.403 27.8366 167.619 33.068 162.645 50.0002C157.627 36.3015 152.663 30.5235 138 25.3555Z" fill="#7E5236"/>
<path d="M54.3516 74.3906C54.4297 74.3906 54.5 74.3984 54.5625 74.4141C54.7969 74.4453 54.9141 74.6406 54.9141 75H48.5625V74.3906C48.875 74.3906 49.1328 74.3672 49.3359 74.3203C49.8047 74.1953 50.0391 73.7969 50.0391 73.125V65.5547H48.5625V64.9688H52.4297L52.5703 67.1719C52.7578 66.7188 53.0156 66.3125 53.3438 65.9531C54.0938 65.1719 54.9453 64.7812 55.8984 64.7812C56.0859 64.7812 56.2734 64.8047 56.4609 64.8516C57.1953 65.0391 57.5625 65.5078 57.5625 66.2578C57.5625 66.4453 57.5234 66.625 57.4453 66.7969C57.2109 67.3438 56.8125 67.6172 56.25 67.6172C56.0938 67.6172 55.9453 67.5938 55.8047 67.5469C55.5078 67.4531 55.2266 67.1562 54.9609 66.6562C54.7578 66.2969 54.5547 66.1172 54.3516 66.1172C54.2266 66.1172 54.0781 66.1719 53.9062 66.2812C53.1719 66.7969 52.75 67.8047 52.6406 69.3047V74.3906H54.3516ZM63.5859 65.25C63.4141 65.25 63.2344 65.2734 63.0469 65.3203C61.9375 65.6641 61.3516 66.9453 61.2891 69.1641L63.0938 69.2344C63.75 69.25 64.25 69.2109 64.5938 69.1172C65.125 68.9297 65.3906 68.4688 65.3906 67.7344C65.3906 67.4688 65.3672 67.2109 65.3203 66.9609C65.1328 65.8203 64.5547 65.25 63.5859 65.25ZM67.875 72.6328C67.7812 72.8672 67.6641 73.1016 67.5234 73.3359C66.7266 74.6016 65.4375 75.2344 63.6562 75.2344C62.6094 75.2344 61.6641 75 60.8203 74.5312C59.2422 73.6094 58.4531 72.0781 58.4531 69.9375C58.4531 68.625 58.7891 67.5078 59.4609 66.5859C60.4141 65.2891 61.7891 64.6406 63.5859 64.6406C64.5703 64.6406 65.4531 64.8281 66.2344 65.2031C67.4844 65.8281 68.1094 66.7578 68.1094 67.9922C68.1094 68.3359 68.0312 68.6328 67.875 68.8828C67.4062 69.6016 66 69.9375 63.6562 69.8906L61.2891 69.8438C61.2891 69.8594 61.2891 69.875 61.2891 69.8906C61.3672 73 62.3203 74.5547 64.1484 74.5547C64.4922 74.5547 64.8281 74.5 65.1562 74.3906C66.1406 74.0781 66.8594 73.4297 67.3125 72.4453L67.875 72.6328ZM74.8125 74.3906C74.9062 74.3906 75 74.3984 75.0938 74.4141C75.2969 74.4609 75.3984 74.6562 75.3984 75H69.2344V74.3906C69.7344 74.3906 70.1016 74.3594 70.3359 74.2969C70.8047 74.1562 71.0391 73.75 71.0391 73.0781V60.375H69.2344V59.7656H73.6172V74.3906H74.8125ZM85.0078 75.2344C83.7734 75.2188 83.0312 74.5078 82.7812 73.1016C82.6719 73.3828 82.5234 73.6562 82.3359 73.9219C81.6484 74.7969 80.6875 75.2344 79.4531 75.2344C79.0156 75.2344 78.6094 75.1719 78.2344 75.0469C77.0625 74.6562 76.4766 73.7891 76.4766 72.4453C76.4922 70.3672 78.5469 69.2969 82.6406 69.2344V67.7344C82.6406 67.4375 82.625 67.1641 82.5938 66.9141C82.4375 65.8047 81.8906 65.25 80.9531 65.25C80.7031 65.25 80.4766 65.2969 80.2734 65.3906C79.9766 65.5469 79.7344 65.9453 79.5469 66.5859C79.4844 66.7734 79.4375 66.9062 79.4062 66.9844C79.1875 67.5625 78.7969 67.8516 78.2344 67.8516C78.0938 67.8516 77.9531 67.8281 77.8125 67.7812C77.3125 67.625 77.0625 67.2812 77.0625 66.75C77.0625 66.4688 77.1484 66.2031 77.3203 65.9531C77.8984 65.0781 79.1719 64.6406 81.1406 64.6406C81.5781 64.6406 81.9922 64.6797 82.3828 64.7578C84.2891 65.1328 85.2422 66.3281 85.2422 68.3438V73.2656C85.2422 74.0156 85.4219 74.4062 85.7812 74.4375C86.25 74.4219 86.5312 73.8672 86.625 72.7734L87.2344 72.7969C87.2031 73.2344 87.1484 73.6094 87.0703 73.9219C86.8047 74.7969 86.1172 75.2344 85.0078 75.2344ZM80.5312 74.25C80.7188 74.25 80.9219 74.2031 81.1406 74.1094C81.875 73.7812 82.375 73.0859 82.6406 72.0234V69.8906C81.8594 69.9062 81.2188 69.9844 80.7188 70.125C79.6562 70.4062 79.125 71.0781 79.125 72.1406C79.125 72.2188 79.125 72.2969 79.125 72.375C79.1875 73.625 79.6562 74.25 80.5312 74.25ZM87.4453 75C87.4453 74.8906 87.4531 74.7891 87.4688 74.6953C87.5 74.5234 87.625 74.4297 87.8438 74.4141C88.3125 74.3359 88.7109 74.1016 89.0391 73.7109L91.7812 70.2656L88.5938 65.5547H87.4922V64.9688H92.6953V65.5547H91.3125L93.4922 68.8125L95.9531 65.5547H94.3828V64.9688H97.875C97.875 65.0781 97.8672 65.1797 97.8516 65.2734C97.8047 65.4297 97.6641 65.5156 97.4297 65.5312C96.9453 65.5938 96.5469 65.8359 96.2344 66.2578L93.8906 69.375L97.2422 74.3906H97.7109C97.9766 74.4219 98.1719 74.625 98.2969 75H93.2109V74.3906H94.5469L92.1562 70.8281L89.3203 74.3906H91.0078V75H87.4453Z" fill="#7E5236"/>
<path d="M73 42C93.068 42 111.191 45.1218 124.261 50.1348C130.799 52.6425 136.021 55.604 139.592 58.8418C143.162 62.0794 145 65.5138 145 69C145 72.4862 143.162 75.9206 139.592 79.1582C136.021 82.396 130.799 85.3575 124.261 87.8652C111.191 92.8782 93.068 96 73 96C52.932 96 34.8088 92.8782 21.7393 87.8652C15.2011 85.3575 9.97856 82.396 6.4082 79.1582C2.83803 75.9206 1 72.4862 1 69C1 65.5138 2.83803 62.0794 6.4082 58.8418C9.97856 55.604 15.2011 52.6425 21.7393 50.1348C34.8088 45.1218 52.932 42 73 42Z" stroke="#7E5236" stroke-width="2"/>
<path d="M99 47.0889C103.826 45.8255 105.468 43.9079 107.089 39C108.04 43.7886 109.875 45.4397 115 46.9111C110.332 47.918 108.486 49.5864 106.911 55C105.292 50.6113 103.698 48.7573 99 47.0889Z" fill="#FCF7F8"/>
</svg>
