<svg width="182" height="28" viewBox="0 0 182 28" fill="none" xmlns="http://www.w3.org/2000/svg">
<path d="M87.2991 4.65072C88.9457 1.55024 89.769 0 91 0C92.231 0 93.0542 1.55023 94.7008 4.65071L95.1268 5.45284C95.5948 6.33389 95.8287 6.77443 96.1936 7.0651C96.5584 7.35576 97.0126 7.46365 97.9213 7.67945L98.7486 7.87591C101.946 8.63529 103.545 9.01498 103.925 10.2988C104.306 11.5827 103.216 12.9205 101.036 15.596L100.472 16.2883C99.8525 17.0486 99.5427 17.4287 99.4033 17.899C99.2641 18.3694 99.3109 18.8766 99.4045 19.8911L99.4898 20.8146C99.8193 24.3844 99.9841 26.1692 98.9883 26.9627C97.9924 27.7562 96.4955 27.0327 93.5016 25.5859L92.727 25.2115C91.8763 24.8004 91.451 24.5948 91 24.5948C90.549 24.5948 90.1237 24.8004 89.2729 25.2115L88.4984 25.5859C85.5045 27.0327 84.0075 27.7562 83.0117 26.9627C82.0159 26.1692 82.1806 24.3844 82.5102 20.8146L82.5955 19.8911C82.6891 18.8766 82.736 18.3694 82.5966 17.899C82.4573 17.4287 82.1476 17.0486 81.5281 16.2883L80.9641 15.596C78.7842 12.9205 77.6943 11.5827 78.0746 10.2988C78.455 9.01498 80.0538 8.63529 83.2514 7.87591L84.0787 7.67945C84.9873 7.46365 85.4416 7.35576 85.8064 7.0651C86.1712 6.77443 86.4052 6.33391 86.8731 5.45284L87.2991 4.65072Z" fill="#7E5236"/>
<path d="M126.299 4.65072C127.946 1.55024 128.769 0 130 0C131.231 0 132.054 1.55023 133.701 4.65071L134.127 5.45284C134.595 6.33389 134.829 6.77443 135.194 7.0651C135.558 7.35576 136.013 7.46365 136.921 7.67945L137.749 7.87591C140.946 8.63529 142.545 9.01498 142.925 10.2988C143.306 11.5827 142.216 12.9205 140.036 15.596L139.472 16.2883C138.852 17.0486 138.543 17.4287 138.403 17.899C138.264 18.3694 138.311 18.8766 138.404 19.8911L138.49 20.8146C138.819 24.3844 138.984 26.1692 137.988 26.9627C136.992 27.7562 135.495 27.0327 132.502 25.5859L131.727 25.2115C130.876 24.8004 130.451 24.5948 130 24.5948C129.549 24.5948 129.124 24.8004 128.273 25.2115L127.498 25.5859C124.504 27.0327 123.008 27.7562 122.012 26.9627C121.016 26.1692 121.181 24.3844 121.51 20.8146L121.595 19.8911C121.689 18.8766 121.736 18.3694 121.597 17.899C121.457 17.4287 121.148 17.0486 120.528 16.2883L119.964 15.596C117.784 12.9205 116.694 11.5827 117.075 10.2988C117.455 9.01498 119.054 8.63529 122.251 7.87591L123.079 7.67945C123.987 7.46365 124.442 7.35576 124.806 7.0651C125.171 6.77443 125.405 6.33391 125.873 5.45284L126.299 4.65072Z" fill="#7E5236"/>
<path d="M48.2991 4.65072C49.9457 1.55024 50.769 0 52 0C53.231 0 54.0542 1.55023 55.7008 4.65071L56.1268 5.45284C56.5948 6.33389 56.8287 6.77443 57.1936 7.0651C57.5584 7.35576 58.0126 7.46365 58.9213 7.67945L59.7486 7.87591C62.9461 8.63529 64.545 9.01498 64.9254 10.2988C65.3057 11.5827 64.2158 12.9205 62.0358 15.596L61.4719 16.2883C60.8525 17.0486 60.5427 17.4287 60.4033 17.899C60.2641 18.3694 60.3109 18.8766 60.4045 19.8911L60.4898 20.8146C60.8193 24.3844 60.9841 26.1692 59.9883 26.9627C58.9924 27.7562 57.4955 27.0327 54.5016 25.5859L53.727 25.2115C52.8763 24.8004 52.451 24.5948 52 24.5948C51.549 24.5948 51.1237 24.8004 50.2729 25.2115L49.4984 25.5859C46.5045 27.0327 45.0075 27.7562 44.0117 26.9627C43.0159 26.1692 43.1806 24.3844 43.5102 20.8146L43.5955 19.8911C43.6891 18.8766 43.736 18.3694 43.5966 17.899C43.4573 17.4287 43.1476 17.0486 42.5281 16.2883L41.9641 15.596C39.7842 12.9205 38.6943 11.5827 39.0746 10.2988C39.455 9.01498 41.0538 8.63529 44.2514 7.87591L45.0787 7.67945C45.9873 7.46365 46.4416 7.35576 46.8064 7.0651C47.1712 6.77443 47.4052 6.33391 47.8731 5.45284L48.2991 4.65072Z" fill="#7E5236"/>
<path d="M9.2991 4.65072C10.9457 1.55024 11.769 0 13 0C14.231 0 15.0542 1.55023 16.7008 4.65071L17.1268 5.45284C17.5948 6.33389 17.8287 6.77443 18.1936 7.0651C18.5584 7.35576 19.0126 7.46365 19.9213 7.67945L20.7486 7.87591C23.9461 8.63529 25.545 9.01498 25.9254 10.2988C26.3057 11.5827 25.2158 12.9205 23.0358 15.596L22.4719 16.2883C21.8525 17.0486 21.5427 17.4287 21.4033 17.899C21.2641 18.3694 21.3109 18.8766 21.4045 19.8911L21.4898 20.8146C21.8193 24.3844 21.9841 26.1692 20.9883 26.9627C19.9924 27.7562 18.4955 27.0327 15.5016 25.5859L14.727 25.2115C13.8763 24.8004 13.451 24.5948 13 24.5948C12.549 24.5948 12.1237 24.8004 11.2729 25.2115L10.4984 25.5859C7.50448 27.0327 6.00753 27.7562 5.01169 26.9627C4.01585 26.1692 4.18064 24.3844 4.51022 20.8146L4.59547 19.8911C4.68914 18.8766 4.73596 18.3694 4.59661 17.899C4.45728 17.4287 4.14756 17.0486 3.52809 16.2883L2.96413 15.596C0.784226 12.9205 -0.305731 11.5827 0.0746484 10.2988C0.455028 9.01498 2.05382 8.63529 5.2514 7.87591L6.07865 7.67945C6.9873 7.46365 7.44162 7.35576 7.80642 7.0651C8.17121 6.77443 8.40518 6.33391 8.8731 5.45284L9.2991 4.65072Z" fill="#7E5236"/>
<path d="M165.299 4.65072C166.946 1.55024 167.769 0 169 0C170.231 0 171.054 1.55023 172.701 4.65071L173.127 5.45284C173.595 6.33389 173.829 6.77443 174.194 7.0651C174.558 7.35576 175.013 7.46365 175.921 7.67945L176.749 7.87591C179.946 8.63529 181.545 9.01498 181.925 10.2988C182.306 11.5827 181.216 12.9205 179.036 15.596L178.472 16.2883C177.852 17.0486 177.543 17.4287 177.403 17.899C177.264 18.3694 177.311 18.8766 177.404 19.8911L177.49 20.8146C177.819 24.3844 177.984 26.1692 176.988 26.9627C175.992 27.7562 174.495 27.0327 171.502 25.5859L170.727 25.2115C169.876 24.8004 169.451 24.5948 169 24.5948C168.549 24.5948 168.124 24.8004 167.273 25.2115L166.498 25.5859C163.504 27.0327 162.008 27.7562 161.012 26.9627C160.016 26.1692 160.181 24.3844 160.51 20.8146L160.595 19.8911C160.689 18.8766 160.736 18.3694 160.597 17.899C160.457 17.4287 160.148 17.0486 159.528 16.2883L158.964 15.596C156.784 12.9205 155.694 11.5827 156.075 10.2988C156.455 9.01498 158.054 8.63529 161.251 7.87591L162.079 7.67945C162.987 7.46365 163.442 7.35576 163.806 7.0651C164.171 6.77443 164.405 6.33391 164.873 5.45284L165.299 4.65072Z" fill="#7E5236"/>
</svg>
