<svg width="162" height="28" viewBox="0 0 162 28" fill="none" xmlns="http://www.w3.org/2000/svg">
<path d="M45.2991 4.65072C46.9457 1.55024 47.769 0 49 0C50.231 0 51.0542 1.55023 52.7008 4.65071L53.1268 5.45284C53.5948 6.33389 53.8287 6.77443 54.1936 7.0651C54.5584 7.35576 55.0126 7.46365 55.9213 7.67945L56.7486 7.87591C59.9461 8.63529 61.545 9.01498 61.9254 10.2988C62.3057 11.5827 61.2158 12.9205 59.0358 15.596L58.4719 16.2883C57.8525 17.0486 57.5427 17.4287 57.4033 17.899C57.2641 18.3694 57.3109 18.8766 57.4045 19.8911L57.4898 20.8146C57.8193 24.3844 57.9841 26.1692 56.9883 26.9627C55.9924 27.7562 54.4955 27.0327 51.5016 25.5859L50.727 25.2115C49.8763 24.8004 49.451 24.5948 49 24.5948C48.549 24.5948 48.1237 24.8004 47.2729 25.2115L46.4984 25.5859C43.5045 27.0327 42.0075 27.7562 41.0117 26.9627C40.0159 26.1692 40.1806 24.3844 40.5102 20.8146L40.5955 19.8911C40.6891 18.8766 40.736 18.3694 40.5966 17.899C40.4573 17.4287 40.1476 17.0486 39.5281 16.2883L38.9641 15.596C36.7842 12.9205 35.6943 11.5827 36.0746 10.2988C36.455 9.01498 38.0538 8.63529 41.2514 7.87591L42.0787 7.67945C42.9873 7.46365 43.4416 7.35576 43.8064 7.0651C44.1712 6.77443 44.4052 6.33391 44.8731 5.45284L45.2991 4.65072Z" fill="#7E5236"/>
<path d="M109.299 4.65072C110.946 1.55024 111.769 0 113 0C114.231 0 115.054 1.55023 116.701 4.65071L117.127 5.45284C117.595 6.33389 117.829 6.77443 118.194 7.0651C118.558 7.35576 119.013 7.46365 119.921 7.67945L120.749 7.87591C123.946 8.63529 125.545 9.01498 125.925 10.2988C126.306 11.5827 125.216 12.9205 123.036 15.596L122.472 16.2883C121.852 17.0486 121.543 17.4287 121.403 17.899C121.264 18.3694 121.311 18.8766 121.404 19.8911L121.49 20.8146C121.819 24.3844 121.984 26.1692 120.988 26.9627C119.992 27.7562 118.495 27.0327 115.502 25.5859L114.727 25.2115C113.876 24.8004 113.451 24.5948 113 24.5948C112.549 24.5948 112.124 24.8004 111.273 25.2115L110.498 25.5859C107.504 27.0327 106.008 27.7562 105.012 26.9627C104.016 26.1692 104.181 24.3844 104.51 20.8146L104.595 19.8911C104.689 18.8766 104.736 18.3694 104.597 17.899C104.457 17.4287 104.148 17.0486 103.528 16.2883L102.964 15.596C100.784 12.9205 99.6943 11.5827 100.075 10.2988C100.455 9.01498 102.054 8.63529 105.251 7.87591L106.079 7.67945C106.987 7.46365 107.442 7.35576 107.806 7.0651C108.171 6.77443 108.405 6.33391 108.873 5.45284L109.299 4.65072Z" fill="#7E5236"/>
<path d="M77.2991 4.65072C78.9457 1.55024 79.769 0 81 0C82.231 0 83.0542 1.55023 84.7008 4.65071L85.1268 5.45284C85.5948 6.33389 85.8287 6.77443 86.1936 7.0651C86.5584 7.35576 87.0126 7.46365 87.9213 7.67945L88.7486 7.87591C91.9461 8.63529 93.545 9.01498 93.9254 10.2988C94.3057 11.5827 93.2158 12.9205 91.0358 15.596L90.4719 16.2883C89.8525 17.0486 89.5427 17.4287 89.4033 17.899C89.2641 18.3694 89.3109 18.8766 89.4045 19.8911L89.4898 20.8146C89.8193 24.3844 89.9841 26.1692 88.9883 26.9627C87.9924 27.7562 86.4955 27.0327 83.5016 25.5859L82.727 25.2115C81.8763 24.8004 81.451 24.5948 81 24.5948C80.549 24.5948 80.1237 24.8004 79.2729 25.2115L78.4984 25.5859C75.5045 27.0327 74.0075 27.7562 73.0117 26.9627C72.0159 26.1692 72.1806 24.3844 72.5102 20.8146L72.5955 19.8911C72.6891 18.8766 72.736 18.3694 72.5966 17.899C72.4573 17.4287 72.1476 17.0486 71.5281 16.2883L70.9641 15.596C68.7842 12.9205 67.6943 11.5827 68.0746 10.2988C68.455 9.01498 70.0538 8.63529 73.2514 7.87591L74.0787 7.67945C74.9873 7.46365 75.4416 7.35576 75.8064 7.0651C76.1712 6.77443 76.4052 6.33391 76.8731 5.45284L77.2991 4.65072Z" fill="#FCF7F8"/>
<path d="M9.2991 4.65072C10.9457 1.55024 11.769 0 13 0C14.231 0 15.0542 1.55023 16.7008 4.65071L17.1268 5.45284C17.5948 6.33389 17.8287 6.77443 18.1936 7.0651C18.5584 7.35576 19.0126 7.46365 19.9213 7.67945L20.7486 7.87591C23.9461 8.63529 25.545 9.01498 25.9254 10.2988C26.3057 11.5827 25.2158 12.9205 23.0358 15.596L22.4719 16.2883C21.8525 17.0486 21.5427 17.4287 21.4033 17.899C21.2641 18.3694 21.3109 18.8766 21.4045 19.8911L21.4898 20.8146C21.8193 24.3844 21.9841 26.1692 20.9883 26.9627C19.9924 27.7562 18.4955 27.0327 15.5016 25.5859L14.727 25.2115C13.8763 24.8004 13.451 24.5948 13 24.5948C12.549 24.5948 12.1237 24.8004 11.2729 25.2115L10.4984 25.5859C7.50448 27.0327 6.00753 27.7562 5.01169 26.9627C4.01585 26.1692 4.18064 24.3844 4.51022 20.8146L4.59547 19.8911C4.68914 18.8766 4.73596 18.3694 4.59661 17.899C4.45728 17.4287 4.14756 17.0486 3.52809 16.2883L2.96413 15.596C0.784226 12.9205 -0.305731 11.5827 0.0746484 10.2988C0.455028 9.01498 2.05382 8.63529 5.2514 7.87591L6.07865 7.67945C6.9873 7.46365 7.44162 7.35576 7.80642 7.0651C8.17121 6.77443 8.40518 6.33391 8.8731 5.45284L9.2991 4.65072Z" fill="#FCF7F8"/>
<path d="M145.299 4.65072C146.946 1.55024 147.769 0 149 0C150.231 0 151.054 1.55023 152.701 4.65071L153.127 5.45284C153.595 6.33389 153.829 6.77443 154.194 7.0651C154.558 7.35576 155.013 7.46365 155.921 7.67945L156.749 7.87591C159.946 8.63529 161.545 9.01498 161.925 10.2988C162.306 11.5827 161.216 12.9205 159.036 15.596L158.472 16.2883C157.852 17.0486 157.543 17.4287 157.403 17.899C157.264 18.3694 157.311 18.8766 157.404 19.8911L157.49 20.8146C157.819 24.3844 157.984 26.1692 156.988 26.9627C155.992 27.7562 154.495 27.0327 151.502 25.5859L150.727 25.2115C149.876 24.8004 149.451 24.5948 149 24.5948C148.549 24.5948 148.124 24.8004 147.273 25.2115L146.498 25.5859C143.504 27.0327 142.008 27.7562 141.012 26.9627C140.016 26.1692 140.181 24.3844 140.51 20.8146L140.595 19.8911C140.689 18.8766 140.736 18.3694 140.597 17.899C140.457 17.4287 140.148 17.0486 139.528 16.2883L138.964 15.596C136.784 12.9205 135.694 11.5827 136.075 10.2988C136.455 9.01498 138.054 8.63529 141.251 7.87591L142.079 7.67945C142.987 7.46365 143.442 7.35576 143.806 7.0651C144.171 6.77443 144.405 6.33391 144.873 5.45284L145.299 4.65072Z" fill="#FCF7F8"/>
</svg>
