<svg width="146" height="56" viewBox="0 0 146 56" fill="none" xmlns="http://www.w3.org/2000/svg">
<path d="M38.8359 37.75C39.0078 37.75 39.1797 37.7188 39.3516 37.6562C40.0859 37.375 40.8516 36.2656 41.6484 34.3281L37.1953 24.5547H36.1406V23.9688H41.3672V24.5547H39.8906L42.8203 31.3984L45.5391 24.5547H43.7812V23.9688H47.3906C47.3906 24.0781 47.3828 24.1719 47.3672 24.25C47.3203 24.4531 47.1328 24.5547 46.8047 24.5547C46.7266 24.5547 46.6562 24.5625 46.5938 24.5781C46.375 24.625 46.1797 24.8594 46.0078 25.2812L42.5156 34.2109C42.2031 35.0078 41.875 35.6875 41.5312 36.25C40.6406 37.7656 39.5547 38.5234 38.2734 38.5234C37.7891 38.5234 37.3438 38.4297 36.9375 38.2422C36.2812 37.9297 35.9531 37.5 35.9531 36.9531C35.9531 36.8594 35.9688 36.7578 36 36.6484C36.1406 36.1953 36.4766 35.9688 37.0078 35.9688C37.2578 35.9688 37.4688 36.0312 37.6406 36.1562C37.8125 36.2812 38 36.6094 38.2031 37.1406C38.3594 37.5469 38.5703 37.75 38.8359 37.75ZM59.5547 33.3906C59.6484 33.3906 59.7344 33.3984 59.8125 33.4141C60.0156 33.4453 60.1172 33.6406 60.1172 34H56.2266L56.1094 31.9375C56 32.1719 55.8672 32.4062 55.7109 32.6406C54.9609 33.7031 53.9531 34.2344 52.6875 34.2344C50.4688 34.2188 49.3516 32.9219 49.3359 30.3438V24.5547H47.8359V23.9688H51.9141V30.7188C51.9141 30.9219 51.9297 31.125 51.9609 31.3281C52.1172 32.5 52.7109 33.0859 53.7422 33.0859C54.0547 33.0859 54.3672 33 54.6797 32.8281C55.5078 32.3281 55.9609 31.4531 56.0391 30.2031L56.0625 24.5547H54.6562V23.9688H58.6406V33.3906H59.5547ZM65.9062 33.3906C65.9844 33.3906 66.0547 33.3984 66.1172 33.4141C66.3516 33.4453 66.4688 33.6406 66.4688 34H61.1953V33.3906C61.4766 33.3906 61.7188 33.3672 61.9219 33.3203C62.4375 33.2109 62.6953 32.8125 62.6953 32.125V24.5547H61.1953V23.9688H65.1328L65.25 25.8438C65.3125 25.7188 65.375 25.5938 65.4375 25.4688C66.1406 24.25 67.1797 23.6406 68.5547 23.6406C68.8203 23.6406 69.0781 23.6797 69.3281 23.7578C70.2969 24.0547 70.9531 24.7812 71.2969 25.9375C71.3125 25.8906 71.3359 25.8359 71.3672 25.7734C72.1016 24.3516 73.2031 23.6406 74.6719 23.6406C75.2188 23.6406 75.7266 23.7891 76.1953 24.0859C77.2266 24.7266 77.7422 25.8203 77.7422 27.3672V33.3906H78.6328C78.7266 33.3906 78.8203 33.3984 78.9141 33.4141C79.1172 33.4609 79.2188 33.6562 79.2188 34H73.9453V33.3906C74.2891 33.3906 74.5469 33.3516 74.7188 33.2734C75.0156 33.1484 75.1641 32.7656 75.1641 32.125V27.1094C75.1641 26.6875 75.1094 26.2969 75 25.9375C74.7188 25.1406 74.2188 24.7422 73.5 24.7422C73.2969 24.7422 73.0938 24.7891 72.8906 24.8828C72.1406 25.2422 71.6797 26 71.5078 27.1562V27.4609V33.3906H72.1172C72.2109 33.3906 72.3047 33.3984 72.3984 33.4141C72.6016 33.4609 72.7031 33.6562 72.7031 34H67.7109V33.3906C68.0547 33.3906 68.3125 33.3516 68.4844 33.2734C68.7812 33.1484 68.9297 32.7656 68.9297 32.125V27.1094C68.9297 26.6719 68.875 26.2812 68.7656 25.9375C68.5 25.1719 68.0469 24.7891 67.4062 24.7891C67.1562 24.7891 66.9062 24.8594 66.6562 25C65.8594 25.4531 65.4062 26.3203 65.2969 27.6016L65.2734 33.3906H65.9062ZM84.9141 33.3906C84.9922 33.3906 85.0625 33.3984 85.125 33.4141C85.3594 33.4453 85.4766 33.6406 85.4766 34H80.2031V33.3906C80.4844 33.3906 80.7266 33.3672 80.9297 33.3203C81.4453 33.2109 81.7031 32.8125 81.7031 32.125V24.5547H80.2031V23.9688H84.1406L84.2578 25.8438C84.3203 25.7188 84.3828 25.5938 84.4453 25.4688C85.1484 24.25 86.1875 23.6406 87.5625 23.6406C87.8281 23.6406 88.0859 23.6797 88.3359 23.7578C89.3047 24.0547 89.9609 24.7812 90.3047 25.9375C90.3203 25.8906 90.3438 25.8359 90.375 25.7734C91.1094 24.3516 92.2109 23.6406 93.6797 23.6406C94.2266 23.6406 94.7344 23.7891 95.2031 24.0859C96.2344 24.7266 96.75 25.8203 96.75 27.3672V33.3906H97.6406C97.7344 33.3906 97.8281 33.3984 97.9219 33.4141C98.125 33.4609 98.2266 33.6562 98.2266 34H92.9531V33.3906C93.2969 33.3906 93.5547 33.3516 93.7266 33.2734C94.0234 33.1484 94.1719 32.7656 94.1719 32.125V27.1094C94.1719 26.6875 94.1172 26.2969 94.0078 25.9375C93.7266 25.1406 93.2266 24.7422 92.5078 24.7422C92.3047 24.7422 92.1016 24.7891 91.8984 24.8828C91.1484 25.2422 90.6875 26 90.5156 27.1562V27.4609V33.3906H91.125C91.2188 33.3906 91.3125 33.3984 91.4062 33.4141C91.6094 33.4609 91.7109 33.6562 91.7109 34H86.7188V33.3906C87.0625 33.3906 87.3203 33.3516 87.4922 33.2734C87.7891 33.1484 87.9375 32.7656 87.9375 32.125V27.1094C87.9375 26.6719 87.8828 26.2812 87.7734 25.9375C87.5078 25.1719 87.0547 24.7891 86.4141 24.7891C86.1641 24.7891 85.9141 24.8594 85.6641 25C84.8672 25.4531 84.4141 26.3203 84.3047 27.6016L84.2812 33.3906H84.9141ZM101.508 37.75C101.68 37.75 101.852 37.7188 102.023 37.6562C102.758 37.375 103.523 36.2656 104.32 34.3281L99.8672 24.5547H98.8125V23.9688H104.039V24.5547H102.562L105.492 31.3984L108.211 24.5547H106.453V23.9688H110.062C110.062 24.0781 110.055 24.1719 110.039 24.25C109.992 24.4531 109.805 24.5547 109.477 24.5547C109.398 24.5547 109.328 24.5625 109.266 24.5781C109.047 24.625 108.852 24.8594 108.68 25.2812L105.188 34.2109C104.875 35.0078 104.547 35.6875 104.203 36.25C103.312 37.7656 102.227 38.5234 100.945 38.5234C100.461 38.5234 100.016 38.4297 99.6094 38.2422C98.9531 37.9297 98.625 37.5 98.625 36.9531C98.625 36.8594 98.6406 36.7578 98.6719 36.6484C98.8125 36.1953 99.1484 35.9688 99.6797 35.9688C99.9297 35.9688 100.141 36.0312 100.312 36.1562C100.484 36.2812 100.672 36.6094 100.875 37.1406C101.031 37.5469 101.242 37.75 101.508 37.75Z" fill="#7E5236"/>
<path d="M73 1C93.068 1 111.191 4.12178 124.261 9.13477C130.799 11.6425 136.021 14.604 139.592 17.8418C143.162 21.0794 145 24.5138 145 28C145 31.4862 143.162 34.9206 139.592 38.1582C136.021 41.396 130.799 44.3575 124.261 46.8652C111.191 51.8782 93.068 55 73 55C52.932 55 34.8088 51.8782 21.7393 46.8652C15.2011 44.3575 9.97856 41.396 6.4082 38.1582C2.83803 34.9206 1 31.4862 1 28C1 24.5138 2.83803 21.0794 6.4082 17.8418C9.97856 14.604 15.2011 11.6425 21.7393 9.13477C34.8088 4.12178 52.932 1 73 1Z" stroke="#7E5236" stroke-width="2"/>
</svg>
